<?xml version="1.0" standalone="no"?>
<!DOCTYPE svg PUBLIC "-//W3C//DTD SVG 20010904//EN"
 "http://www.w3.org/TR/2001/REC-SVG-20010904/DTD/svg10.dtd">
<svg version="1.0" xmlns="http://www.w3.org/2000/svg"
 width="1715.000000pt" height="1715.000000pt" viewBox="0 0 1715.000000 1715.000000"
 preserveAspectRatio="xMidYMid meet">
<metadata>
Created by potrace 1.14, written by Peter Selinger 2001-2017
</metadata>
<g transform="translate(0.000000,1715.000000) scale(0.100000,-0.100000)"
fill="#000000" stroke="none">
<path d="M8316 16833 c-1 -1 -67 -4 -146 -8 -80 -3 -172 -7 -205 -10 -89 -7
-186 -15 -225 -20 -19 -2 -62 -7 -95 -10 -69 -7 -276 -33 -314 -40 -14 -2 -44
-7 -66 -9 -22 -3 -51 -8 -65 -11 -14 -3 -38 -7 -55 -10 -32 -5 -62 -10 -140
-25 -27 -5 -63 -12 -80 -15 -24 -3 -165 -35 -280 -61 -11 -3 -29 -7 -40 -8
-11 -2 -74 -18 -140 -36 -66 -17 -127 -33 -135 -35 -231 -58 -782 -250 -1012
-354 -24 -11 -81 -36 -128 -56 -107 -47 -419 -201 -525 -258 -44 -24 -100 -55
-125 -68 -369 -202 -964 -607 -1240 -845 -14 -12 -61 -52 -105 -89 -277 -233
-700 -656 -943 -945 -271 -322 -642 -832 -717 -985 -18 -38 -35 -78 -37 -88
-3 -17 30 -18 667 -18 369 0 677 2 685 4 23 5 63 28 80 46 9 9 63 75 122 147
252 309 543 613 833 870 163 144 442 365 585 463 242 166 431 284 628 395 96
54 411 213 492 249 19 9 62 28 95 42 81 37 241 103 290 121 22 8 47 17 55 21
8 3 17 7 20 8 3 1 18 7 33 13 38 16 444 153 465 157 10 2 58 15 108 29 50 15
100 28 110 30 10 2 55 13 99 25 85 21 253 60 295 67 14 2 36 7 50 9 14 3 37 8
53 10 38 7 68 12 135 24 31 6 77 13 102 16 25 3 52 8 60 10 13 4 79 12 175 20
17 2 53 6 80 9 302 38 964 43 1314 11 224 -20 239 -22 451 -51 101 -13 291
-46 396 -68 65 -14 130 -27 144 -30 61 -11 325 -81 473 -125 224 -68 492 -166
662 -240 22 -10 90 -40 150 -67 204 -89 450 -216 720 -369 277 -158 695 -449
951 -665 520 -436 968 -938 1340 -1500 526 -794 860 -1586 1043 -2471 33 -162
32 -155 60 -329 19 -123 25 -167 36 -265 4 -27 8 -59 9 -70 2 -11 7 -56 11
-100 4 -44 9 -91 11 -105 25 -206 25 -959 -1 -1185 -1 -16 -6 -59 -10 -95 -7
-75 -13 -130 -20 -180 -3 -19 -7 -55 -10 -80 -20 -155 -75 -452 -117 -630 -11
-47 -22 -96 -24 -109 -3 -14 -7 -28 -9 -31 -2 -4 -6 -20 -9 -36 -9 -51 -86
-305 -101 -335 -9 -16 -27 -36 -41 -46 -24 -15 -207 -16 -2574 -16 -2014 0
-2552 2 -2564 12 -17 14 -23 1 98 204 42 70 76 132 76 137 0 6 4 10 9 10 5 0
11 8 15 18 3 9 15 33 27 52 12 19 91 154 176 300 86 146 163 276 172 290 8 14
21 34 27 45 6 11 35 61 64 110 29 50 58 100 64 112 6 13 14 23 19 23 4 0 7 4
7 10 0 5 43 83 96 172 53 90 127 215 164 278 37 63 150 257 252 430 102 173
263 448 358 610 95 162 180 307 189 321 14 25 54 93 146 249 88 150 143 243
260 440 325 544 459 790 501 918 108 327 -53 614 -386 689 -68 15 -210 17
-1565 17 -819 0 -1514 -3 -1543 -7 -101 -14 -203 -64 -283 -139 -194 -183
-256 -411 -182 -667 67 -232 207 -376 419 -432 77 -20 103 -20 859 -20 429 1
794 3 812 5 40 4 73 -17 73 -48 0 -13 -18 -51 -40 -85 -22 -34 -160 -265 -306
-514 -147 -248 -288 -488 -314 -532 -68 -114 -370 -624 -390 -660 -9 -16 -210
-356 -445 -755 -236 -399 -537 -909 -670 -1135 -133 -225 -297 -504 -365 -619
-68 -115 -136 -239 -151 -275 -59 -141 -74 -365 -33 -486 65 -190 263 -318
544 -352 19 -2 1464 -5 3210 -7 1746 -2 3339 -5 3540 -6 212 -1 376 3 390 8
45 17 78 61 121 165 23 56 46 106 51 111 4 6 8 16 8 23 0 7 9 32 19 56 31 67
144 378 199 547 95 292 191 662 236 915 3 17 8 41 11 55 14 63 46 256 60 360
9 63 18 126 20 140 2 14 7 52 10 85 4 33 8 71 10 85 2 14 6 57 10 95 3 39 8
93 10 120 10 113 16 206 20 305 6 127 6 634 1 746 -6 112 -17 283 -21 319 -2
17 -6 71 -10 120 -4 50 -8 92 -10 95 -2 3 -6 39 -10 80 -4 41 -9 84 -11 95 -2
11 -6 40 -9 65 -3 25 -8 56 -10 70 -6 30 -12 72 -20 125 -3 23 -8 52 -10 65
-3 14 -8 41 -11 60 -3 19 -17 91 -30 160 -14 69 -28 136 -30 150 -3 14 -11 50
-19 80 -8 30 -16 66 -19 80 -27 146 -217 778 -266 885 -4 11 -18 47 -30 80
-11 33 -25 69 -29 80 -5 11 -28 67 -51 124 -23 57 -45 111 -50 120 -4 9 -34
75 -65 146 -138 312 -341 693 -532 998 -74 119 -253 388 -263 397 -3 3 -17 21
-30 40 -129 190 -353 466 -625 770 -90 101 -439 443 -565 555 -342 303 -643
534 -983 759 -149 98 -208 136 -345 217 -190 114 -584 320 -762 398 -30 14
-86 39 -125 56 -265 121 -782 304 -1070 380 -55 14 -123 33 -151 41 -28 8 -60
16 -70 18 -11 2 -48 11 -84 20 -136 32 -236 55 -265 59 -16 3 -66 13 -110 21
-135 27 -178 35 -225 41 -25 4 -81 13 -125 20 -44 7 -109 17 -145 20 -36 4
-67 8 -70 10 -3 2 -43 6 -89 10 -46 4 -91 8 -100 10 -16 3 -146 14 -231 21
-178 12 -785 26 -794 17z"/>
<path d="M1440 11890 c-447 -5 -452 -6 -482 -52 -14 -22 -88 -209 -162 -408
-65 -177 -203 -606 -221 -690 -2 -8 -11 -44 -20 -80 -18 -69 -23 -90 -31 -130
-3 -14 -10 -43 -16 -65 -5 -22 -11 -47 -13 -55 -2 -8 -12 -60 -24 -115 -21
-106 -42 -216 -46 -252 -2 -12 -6 -34 -9 -50 -3 -15 -8 -43 -11 -60 -3 -18 -8
-48 -11 -65 -3 -18 -7 -46 -9 -63 -2 -16 -6 -46 -9 -65 -3 -19 -8 -53 -10 -75
-3 -22 -10 -76 -15 -120 -12 -99 -20 -177 -36 -380 -30 -379 -21 -1031 20
-1395 5 -47 14 -126 20 -175 3 -22 7 -65 10 -95 4 -30 8 -62 10 -70 2 -8 7
-35 10 -60 3 -25 8 -56 10 -70 3 -14 7 -41 10 -60 13 -88 92 -487 119 -600
226 -942 641 -1872 1204 -2700 134 -196 425 -583 482 -640 3 -3 32 -36 65 -75
184 -217 522 -563 725 -745 58 -51 121 -107 140 -124 161 -144 510 -414 744
-575 460 -318 987 -605 1476 -806 63 -26 129 -53 145 -60 210 -91 711 -251
1043 -335 127 -32 411 -94 472 -104 40 -7 75 -13 145 -26 28 -5 86 -14 130
-20 44 -6 91 -13 105 -15 14 -2 48 -7 75 -10 28 -3 82 -10 120 -15 105 -14
218 -24 403 -36 227 -16 1103 -8 1200 11 9 1 60 6 112 10 52 4 102 8 110 10 8
2 44 6 80 10 36 3 76 8 90 10 14 2 75 11 135 19 147 20 187 26 205 31 8 2 35
7 60 10 25 3 61 10 80 15 19 5 55 12 80 15 81 12 388 83 573 134 321 88 658
202 922 311 237 98 717 327 875 417 150 86 364 212 420 248 328 212 475 316
700 494 112 88 324 265 361 301 15 14 66 61 115 105 311 281 712 720 974 1065
35 47 68 90 73 95 61 74 340 485 354 520 4 13 -73 15 -588 17 -327 1 -625 1
-663 0 -82 -2 -155 -24 -215 -65 -53 -36 -56 -40 -163 -159 -283 -317 -581
-607 -883 -858 -140 -117 -460 -359 -534 -405 -9 -6 -69 -45 -134 -88 -64 -42
-121 -77 -126 -77 -5 0 -11 -4 -13 -8 -13 -31 -587 -336 -808 -430 -69 -30
-84 -36 -143 -62 -232 -101 -822 -293 -1007 -326 -14 -2 -61 -13 -105 -24 -44
-10 -93 -21 -110 -24 -16 -3 -79 -14 -140 -26 -110 -20 -121 -22 -205 -35 -25
-4 -52 -9 -60 -10 -8 -1 -42 -6 -75 -10 -32 -4 -66 -8 -75 -10 -8 -2 -49 -6
-90 -10 -41 -4 -82 -8 -90 -10 -13 -2 -139 -13 -245 -21 -118 -8 -400 -17
-540 -17 -174 0 -518 11 -555 18 -12 2 -63 7 -114 10 -50 4 -98 8 -106 10 -8
2 -42 7 -75 10 -33 3 -75 8 -93 11 -17 3 -47 7 -66 9 -122 16 -420 70 -435 80
-4 2 -26 6 -49 10 -70 10 -343 81 -517 135 -845 259 -1687 702 -2360 1244 -93
74 -225 185 -251 210 -6 6 -49 45 -95 86 -46 41 -140 131 -209 200 -253 253
-408 429 -617 700 -62 80 -116 150 -121 155 -52 64 -258 372 -354 530 -134
222 -329 591 -412 785 -15 36 -34 79 -41 95 -12 27 -48 114 -70 170 -4 11 -9
25 -11 30 -1 6 -16 44 -32 85 -34 87 -122 346 -128 375 -2 11 -8 31 -13 45
-46 118 -156 587 -200 850 -6 36 -13 76 -15 90 -3 14 -10 63 -16 110 -6 47
-13 96 -15 110 -2 14 -6 52 -10 85 -3 33 -8 74 -10 90 -2 17 -6 68 -10 115 -3
47 -8 103 -10 125 -27 273 -22 897 10 1150 6 49 12 101 20 180 3 33 8 67 10
75 2 8 6 38 10 65 31 258 194 975 231 1016 13 15 116 16 1157 17 628 0 1502 1
1942 3 736 2 803 1 826 -14 14 -10 31 -29 37 -42 9 -19 12 -648 12 -2443 1
-2342 2 -2419 20 -2492 62 -243 228 -401 475 -451 51 -10 219 -13 268 -4 15 3
38 7 52 9 183 32 360 196 427 396 l22 65 1 2446 c1 1932 4 2453 14 2477 13 30
50 53 87 53 10 0 195 0 409 -1 419 0 482 2 561 25 155 45 269 129 360 266 162
247 126 601 -83 806 -105 103 -227 160 -384 179 -63 8 -5913 11 -6539 4z"/>
</g>
</svg>
